<svg width="19" height="19" viewBox="0 0 19 19" fill="var(--secondary)" xmlns="http://www.w3.org/2000/svg">
<g clip-path="url(#clip0_217_60713)">
<path d="M7.91659 1.58325H2.37492C2.16496 1.58325 1.96359 1.66666 1.81513 1.81513C1.66666 1.96359 1.58325 2.16496 1.58325 2.37492V7.91659C1.58325 8.12655 1.66666 8.32791 1.81513 8.47638C1.96359 8.62484 2.16496 8.70825 2.37492 8.70825H7.91659C8.12655 8.70825 8.32791 8.62484 8.47638 8.47638C8.62484 8.32791 8.70825 8.12655 8.70825 7.91659V2.37492C8.70825 2.16496 8.62484 1.96359 8.47638 1.81513C8.32791 1.66666 8.12655 1.58325 7.91659 1.58325Z"/>
<path d="M16.6248 1.58325H11.0832C10.8732 1.58325 10.6718 1.66666 10.5234 1.81513C10.3749 1.96359 10.2915 2.16496 10.2915 2.37492V7.91659C10.2915 8.12655 10.3749 8.32791 10.5234 8.47638C10.6718 8.62484 10.8732 8.70825 11.0832 8.70825H16.6248C16.8348 8.70825 17.0362 8.62484 17.1846 8.47638C17.3331 8.32791 17.4165 8.12655 17.4165 7.91659V2.37492C17.4165 2.16496 17.3331 1.96359 17.1846 1.81513C17.0362 1.66666 16.8348 1.58325 16.6248 1.58325Z"/>
<path d="M7.91659 10.2915H2.37492C2.16496 10.2915 1.96359 10.3749 1.81513 10.5234C1.66666 10.6718 1.58325 10.8732 1.58325 11.0832V16.6248C1.58325 16.8348 1.66666 17.0362 1.81513 17.1846C1.96359 17.3331 2.16496 17.4165 2.37492 17.4165H7.91659C8.12655 17.4165 8.32791 17.3331 8.47638 17.1846C8.62484 17.0362 8.70825 16.8348 8.70825 16.6248V11.0832C8.70825 10.8732 8.62484 10.6718 8.47638 10.5234C8.32791 10.3749 8.12655 10.2915 7.91659 10.2915Z"/>
<path d="M16.6248 10.2915H11.0832C10.8732 10.2915 10.6718 10.3749 10.5234 10.5234C10.3749 10.6718 10.2915 10.8732 10.2915 11.0832V16.6248C10.2915 16.8348 10.3749 17.0362 10.5234 17.1846C10.6718 17.3331 10.8732 17.4165 11.0832 17.4165H16.6248C16.8348 17.4165 17.0362 17.3331 17.1846 17.1846C17.3331 17.0362 17.4165 16.8348 17.4165 16.6248V11.0832C17.4165 10.8732 17.3331 10.6718 17.1846 10.5234C17.0362 10.3749 16.8348 10.2915 16.6248 10.2915Z"/>
</g>
<defs>
<clipPath id="clip0_217_60713">
<rect width="19" height="19"/>
</clipPath>
</defs>
</svg>
