<svg width="18" height="18" viewBox="0 0 18 18" fill="none" xmlns="http://www.w3.org/2000/svg">
<path d="M14.37 2.66394C12.4776 0.771526 9.39592 0.771526 7.50552 2.66394L2.26221 7.90322C2.22806 7.93737 2.20998 7.98358 2.20998 8.03179C2.20998 8.08001 2.22806 8.12621 2.26221 8.16037L3.00351 8.90166C3.03739 8.9354 3.08326 8.95434 3.13107 8.95434C3.17889 8.95434 3.22476 8.9354 3.25864 8.90166L8.50194 3.66237C9.15284 3.01148 10.0187 2.65389 10.9388 2.65389C11.8589 2.65389 12.7247 3.01148 13.3736 3.66237C14.0245 4.31327 14.3821 5.17912 14.3821 6.0972C14.3821 7.01729 14.0245 7.88112 13.3736 8.53202L8.02985 13.8738L7.164 14.7396C6.3544 15.5492 5.03855 15.5492 4.22895 14.7396C3.83721 14.3479 3.62226 13.8276 3.62226 13.2731C3.62226 12.7186 3.83721 12.1983 4.22895 11.8066L9.53052 6.50702C9.66511 6.37443 9.8419 6.3001 10.0307 6.3001H10.0327C10.2216 6.3001 10.3964 6.37443 10.529 6.50702C10.6636 6.64162 10.7359 6.8184 10.7359 7.00724C10.7359 7.19407 10.6615 7.37086 10.529 7.50345L6.19569 11.8327C6.16154 11.8668 6.14346 11.913 6.14346 11.9613C6.14346 12.0095 6.16154 12.0557 6.19569 12.0898L6.93699 12.8311C6.97087 12.8649 7.01674 12.8838 7.06456 12.8838C7.11237 12.8838 7.15824 12.8649 7.19212 12.8311L11.5234 8.49988C11.9231 8.1001 12.1421 7.56974 12.1421 7.00523C12.1421 6.44072 11.9211 5.90836 11.5234 5.51059C10.6977 4.68492 9.35574 4.68693 8.53007 5.51059L8.01578 6.02688L3.23052 10.8101C2.90573 11.133 2.64828 11.5172 2.4731 11.9403C2.29791 12.3634 2.20848 12.8171 2.20998 13.2751C2.20998 14.2052 2.5736 15.0791 3.23052 15.736C3.91154 16.4151 4.80351 16.7546 5.69547 16.7546C6.58743 16.7546 7.4794 16.4151 8.15842 15.736L14.37 9.52845C15.2841 8.61237 15.7903 7.39295 15.7903 6.0972C15.7923 4.79943 15.2861 3.58001 14.37 2.66394Z" fill="#578BFA"/>
</svg>
