<svg width="17" height="16" viewBox="0 0 17 16" fill="none" xmlns="http://www.w3.org/2000/svg">
<g clip-path="url(#clip0_209_59421)">
<path d="M13.7619 6.35575H6.4762V9.57053H13.7619V11.2519L17 8.00252L13.7619 4.75317V6.35575Z" fill="white"/>
<path d="M11.2678 5.55194V1.60739C11.2678 1.18109 11.0972 0.77224 10.7936 0.470795C10.4899 0.16935 10.0781 0 9.64871 0L1.61905 0C1.18965 0 0.777838 0.16935 0.474208 0.470795C0.170578 0.77224 0 1.18109 0 1.60739L0 14.3926C0 14.8189 0.170578 15.2278 0.474208 15.5292C0.777838 15.8307 1.18965 16 1.61905 16H9.64871C10.0781 16 10.4899 15.8307 10.7936 15.5292C11.0972 15.2278 11.2678 14.8189 11.2678 14.3926V10.3741H5.70633V5.55194H11.2678Z" fill="white"/>
</g>
<defs>
<clipPath id="clip0_209_59421">
<rect width="17" height="16" fill="white"/>
</clipPath>
</defs>
</svg>
