<svg width="19" height="19" viewBox="0 0 19 19" fill="none" xmlns="http://www.w3.org/2000/svg">
<path fill-rule="evenodd" clip-rule="evenodd" d="M17.625 13.2228C17.1277 13.7387 15.8694 15.0401 14.8324 16.0863L10.4923 11.4476L13.0908 8.84905L17.625 13.2228ZM9.56042 10.5161L12.159 7.91752C12.159 7.91752 10.8393 6.91051 10.9608 6.28153C11.0824 5.65256 11.3568 4.76318 13.2683 3.9741C15.1794 3.18535 16.9624 3.11412 16.9624 3.11412L17.0264 2.25251C17.0264 2.25251 12.6337 1.5889 10.3132 2.41327C7.99273 3.23763 5.36803 6.341 5.36803 6.341C5.36803 6.341 5.82579 7.84171 5.04162 8.62621C4.25712 9.41072 3.20273 8.5063 3.20273 8.5063L2 10.0335L5.03508 13.0682L6.55932 11.8629C6.55932 11.8629 5.83788 10.7824 6.55083 10.1354C8.08487 8.74319 9.56042 10.5161 9.56042 10.5161Z" fill="white"/>
</svg>
