<svg width="140" height="29" viewBox="0 0 140 29" fill="none" xmlns="http://www.w3.org/2000/svg">
<path d="M0.914 22V0.299999H4.231L13.717 16.141H11.981L21.312 0.299999H24.629L24.66 22H20.847L20.816 6.283H21.622L13.686 19.52H11.888L3.828 6.283H4.758V22H0.914Z" fill="black"/>
<path d="M40.3484 22V18.652L40.1314 17.939V12.08C40.1314 10.9433 39.7904 10.065 39.1084 9.445C38.4264 8.80433 37.3931 8.484 36.0084 8.484C35.0784 8.484 34.1588 8.62867 33.2494 8.918C32.3608 9.20733 31.6064 9.61033 30.9864 10.127L29.4674 7.306C30.3561 6.624 31.4101 6.11767 32.6294 5.787C33.8694 5.43567 35.1508 5.26 36.4734 5.26C38.8708 5.26 40.7204 5.83867 42.0224 6.996C43.3451 8.13267 44.0064 9.89967 44.0064 12.297V22H40.3484ZM35.1404 22.217C33.9004 22.217 32.8154 22.0103 31.8854 21.597C30.9554 21.163 30.2321 20.574 29.7154 19.83C29.2194 19.0653 28.9714 18.2077 28.9714 17.257C28.9714 16.327 29.1884 15.49 29.6224 14.746C30.0771 14.002 30.8108 13.413 31.8234 12.979C32.8361 12.545 34.1794 12.328 35.8534 12.328H40.6584V14.901H36.1324C34.8098 14.901 33.9211 15.118 33.4664 15.552C33.0118 15.9653 32.7844 16.482 32.7844 17.102C32.7844 17.8047 33.0634 18.3627 33.6214 18.776C34.1794 19.1893 34.9544 19.396 35.9464 19.396C36.8971 19.396 37.7444 19.179 38.4884 18.745C39.2531 18.311 39.8008 17.6703 40.1314 16.823L40.7824 19.148C40.4104 20.1193 39.7388 20.8737 38.7674 21.411C37.8168 21.9483 36.6078 22.217 35.1404 22.217ZM58.3725 5.26C59.6952 5.26 60.8732 5.51833 61.9065 6.035C62.9605 6.55167 63.7872 7.34733 64.3865 8.422C64.9858 9.476 65.2855 10.84 65.2855 12.514V22H61.4105V13.01C61.4105 11.5427 61.0592 10.4473 60.3565 9.724C59.6745 9.00067 58.7135 8.639 57.4735 8.639C56.5642 8.639 55.7582 8.825 55.0555 9.197C54.3528 9.569 53.8052 10.127 53.4125 10.871C53.0405 11.5943 52.8545 12.514 52.8545 13.63V22H48.9795V5.446H52.6685V9.91L52.0175 8.546C52.5962 7.492 53.4332 6.686 54.5285 6.128C55.6445 5.54933 56.9258 5.26 58.3725 5.26ZM80.4002 22V18.652L80.1832 17.939V12.08C80.1832 10.9433 79.8422 10.065 79.1602 9.445C78.4782 8.80433 77.4448 8.484 76.0602 8.484C75.1302 8.484 74.2105 8.62867 73.3012 8.918C72.4125 9.20733 71.6582 9.61033 71.0382 10.127L69.5192 7.306C70.4078 6.624 71.4618 6.11767 72.6812 5.787C73.9212 5.43567 75.2025 5.26 76.5252 5.26C78.9225 5.26 80.7722 5.83867 82.0742 6.996C83.3968 8.13267 84.0582 9.89967 84.0582 12.297V22H80.4002ZM75.1922 22.217C73.9522 22.217 72.8672 22.0103 71.9372 21.597C71.0072 21.163 70.2838 20.574 69.7672 19.83C69.2712 19.0653 69.0232 18.2077 69.0232 17.257C69.0232 16.327 69.2402 15.49 69.6742 14.746C70.1288 14.002 70.8625 13.413 71.8752 12.979C72.8878 12.545 74.2312 12.328 75.9052 12.328H80.7102V14.901H76.1842C74.8615 14.901 73.9728 15.118 73.5182 15.552C73.0635 15.9653 72.8362 16.482 72.8362 17.102C72.8362 17.8047 73.1152 18.3627 73.6732 18.776C74.2312 19.1893 75.0062 19.396 75.9982 19.396C76.9488 19.396 77.7962 19.179 78.5402 18.745C79.3048 18.311 79.8525 17.6703 80.1832 16.823L80.8342 19.148C80.4622 20.1193 79.7905 20.8737 78.8192 21.411C77.8685 21.9483 76.6595 22.217 75.1922 22.217ZM96.5635 28.231C95.0342 28.231 93.5359 28.0243 92.0685 27.611C90.6219 27.2183 89.4335 26.6397 88.5035 25.875L90.2395 22.961C90.9629 23.5603 91.8722 24.0357 92.9675 24.387C94.0835 24.759 95.2099 24.945 96.3465 24.945C98.1652 24.945 99.4982 24.5213 100.346 23.674C101.193 22.8473 101.617 21.597 101.617 19.923V16.978L101.927 13.227L101.803 9.476V5.446H105.492V19.489C105.492 22.4857 104.727 24.6867 103.198 26.092C101.668 27.518 99.4569 28.231 96.5635 28.231ZM96.0675 21.256C94.4969 21.256 93.0709 20.9253 91.7895 20.264C90.5289 19.582 89.5265 18.6417 88.7825 17.443C88.0592 16.2443 87.6975 14.839 87.6975 13.227C87.6975 11.6357 88.0592 10.2407 88.7825 9.042C89.5265 7.84333 90.5289 6.91333 91.7895 6.252C93.0709 5.59067 94.4969 5.26 96.0675 5.26C97.4729 5.26 98.7335 5.539 99.8495 6.097C100.966 6.655 101.854 7.523 102.516 8.701C103.198 9.879 103.539 11.3877 103.539 13.227C103.539 15.0663 103.198 16.5853 102.516 17.784C101.854 18.962 100.966 19.8403 99.8495 20.419C98.7335 20.977 97.4729 21.256 96.0675 21.256ZM96.6565 17.97C97.6279 17.97 98.4959 17.7737 99.2605 17.381C100.025 16.9677 100.614 16.4097 101.028 15.707C101.462 14.9837 101.679 14.157 101.679 13.227C101.679 12.297 101.462 11.4807 101.028 10.778C100.614 10.0547 100.025 9.507 99.2605 9.135C98.4959 8.74233 97.6279 8.546 96.6565 8.546C95.6852 8.546 94.8069 8.74233 94.0215 9.135C93.2569 9.507 92.6575 10.0547 92.2235 10.778C91.8102 11.4807 91.6035 12.297 91.6035 13.227C91.6035 14.157 91.8102 14.9837 92.2235 15.707C92.6575 16.4097 93.2569 16.9677 94.0215 17.381C94.8069 17.7737 95.6852 17.97 96.6565 17.97ZM118.367 22.217C116.528 22.217 114.916 21.8553 113.531 21.132C112.167 20.388 111.103 19.3753 110.338 18.094C109.594 16.8127 109.222 15.3557 109.222 13.723C109.222 12.0697 109.584 10.6127 110.307 9.352C111.051 8.07067 112.064 7.06833 113.345 6.345C114.647 5.62167 116.125 5.26 117.778 5.26C119.39 5.26 120.826 5.61133 122.087 6.314C123.348 7.01667 124.34 8.00867 125.063 9.29C125.786 10.5713 126.148 12.08 126.148 13.816C126.148 13.9813 126.138 14.1673 126.117 14.374C126.117 14.5807 126.107 14.777 126.086 14.963H112.291V12.39H124.04L122.521 13.196C122.542 12.2453 122.345 11.4083 121.932 10.685C121.519 9.96167 120.95 9.39333 120.227 8.98C119.524 8.56667 118.708 8.36 117.778 8.36C116.827 8.36 115.99 8.56667 115.267 8.98C114.564 9.39333 114.006 9.972 113.593 10.716C113.2 11.4393 113.004 12.297 113.004 13.289V13.909C113.004 14.901 113.231 15.7793 113.686 16.544C114.141 17.3087 114.781 17.8977 115.608 18.311C116.435 18.7243 117.385 18.931 118.46 18.931C119.39 18.931 120.227 18.7863 120.971 18.497C121.715 18.2077 122.376 17.753 122.955 17.133L125.032 19.52C124.288 20.388 123.348 21.0597 122.211 21.535C121.095 21.9897 119.814 22.217 118.367 22.217ZM129.87 22V5.446H133.559V10.003L133.125 8.67C133.621 7.554 134.396 6.70667 135.45 6.128C136.525 5.54933 137.858 5.26 139.449 5.26V8.949C139.284 8.90767 139.129 8.887 138.984 8.887C138.839 8.86633 138.695 8.856 138.55 8.856C137.083 8.856 135.915 9.29 135.047 10.158C134.179 11.0053 133.745 12.2763 133.745 13.971V22H129.87Z" fill="#99B2C6"/>
</svg>
