<svg width="19" height="19" viewBox="0 0 19 19" fill="var(--secondary)" xmlns="http://www.w3.org/2000/svg">
<path d="M15.3029 4.49676L10.3392 1.82093C9.81665 1.53593 9.18332 1.53593 8.66082 1.82093L3.69707 4.49676C3.3329 4.69468 3.11124 5.07468 3.11124 5.51009C3.11124 5.93759 3.3329 6.32551 3.69707 6.52343L8.66082 9.19926C8.92207 9.34176 9.21499 9.41301 9.49999 9.41301C9.78499 9.41301 10.0779 9.34176 10.3392 9.19926L15.3029 6.52343C15.6671 6.32551 15.8887 5.94551 15.8887 5.51009C15.8887 5.07468 15.6671 4.69468 15.3029 4.49676Z" />
<path d="M7.84543 10.1255L3.22209 7.81383C2.86584 7.63966 2.45418 7.6555 2.12168 7.86133C1.78126 8.07508 1.58334 8.43133 1.58334 8.82716V13.1892C1.58334 13.9413 2.00293 14.6222 2.67584 14.9626L7.29126 17.2742C7.44959 17.3534 7.62376 17.393 7.79793 17.393C8.00376 17.393 8.20959 17.3376 8.39168 17.2267C8.73209 17.0209 8.93001 16.6567 8.93001 16.2609V11.8988C8.93793 11.1388 8.51834 10.458 7.84543 10.1255Z" />
<path d="M16.8783 7.86112C16.5379 7.65528 16.1263 7.63153 15.7779 7.81362L11.1625 10.1253C10.4896 10.4657 10.07 11.1386 10.07 11.8986V16.2607C10.07 16.6565 10.2679 17.0207 10.6083 17.2265C10.7904 17.3374 10.9963 17.3928 11.2021 17.3928C11.3763 17.3928 11.5504 17.3532 11.7088 17.274L16.3242 14.9624C16.9971 14.622 17.4167 13.949 17.4167 13.189V8.82695C17.4167 8.43112 17.2188 8.07487 16.8783 7.86112Z" />
</svg>
