<svg width="19" height="19" viewBox="0 0 19 19" fill="var(--secondary)" xmlns="http://www.w3.org/2000/svg">
<path d="M9.10409 16.6249C13.2577 16.6249 16.6249 13.2577 16.6249 9.10409C16.6249 4.95044 13.2577 1.58325 9.10409 1.58325C4.95044 1.58325 1.58325 4.95044 1.58325 9.10409C1.58325 13.2577 4.95044 16.6249 9.10409 16.6249Z" />
<path d="M16.8625 17.4167C16.72 17.4167 16.5775 17.3613 16.4746 17.2584L15.0021 15.7859C14.7884 15.5721 14.7884 15.2238 15.0021 15.0021C15.2159 14.7884 15.5642 14.7884 15.7859 15.0021L17.2584 16.4746C17.4721 16.6884 17.4721 17.0367 17.2584 17.2584C17.1475 17.3613 17.005 17.4167 16.8625 17.4167Z" />
</svg>
