<svg width="27" height="27" viewBox="0 0 27 27" fill="none" xmlns="http://www.w3.org/2000/svg">
<path d="M21.208 20.6988L18.8846 16.0629L16.5612 20.6988" stroke="white" stroke-width="1.5" stroke-linecap="round" stroke-linejoin="round"/>
<path d="M16.9846 19.8737H20.8063" stroke="white" stroke-width="1.5" stroke-linecap="round" stroke-linejoin="round"/>
<path d="M18.8846 24.3143C15.8446 24.3143 13.3691 21.8497 13.3691 18.7988C13.3691 15.7588 15.8337 13.2834 18.8846 13.2834C21.9246 13.2834 24.4 15.748 24.4 18.7988C24.4 21.8497 21.9354 24.3143 18.8846 24.3143Z" stroke="white" stroke-width="1.5" stroke-linecap="round" stroke-linejoin="round"/>
<path d="M5.96459 2.59998H10.2206C12.468 2.59998 13.5537 3.68571 13.4995 5.87885V10.1348C13.5537 12.3823 12.468 13.468 10.2206 13.4137H5.96459C3.77145 13.4571 2.68573 12.3714 2.68573 10.124V5.86799C2.68573 3.6857 3.77145 2.59998 5.96459 2.59998Z" stroke="white" stroke-width="1.5" stroke-linecap="round" stroke-linejoin="round"/>
<path d="M10.2965 6.78003H5.88855" stroke="white" stroke-width="1.5" stroke-linecap="round" stroke-linejoin="round"/>
<path d="M8.08167 6.04175V6.78003" stroke="white" stroke-width="1.5" stroke-linecap="round" stroke-linejoin="round"/>
<path d="M9.18912 6.76917C9.18912 8.66916 7.70169 10.2109 5.87769 10.2109" stroke="white" stroke-width="1.5" stroke-linecap="round" stroke-linejoin="round"/>
<path d="M10.2965 10.211C9.50395 10.211 8.78739 9.78752 8.28796 9.11438" stroke="white" stroke-width="1.5" stroke-linecap="round" stroke-linejoin="round"/>
<path d="M2.68573 16.7142C2.68573 20.9159 6.08402 24.3142 10.2857 24.3142L9.14573 22.4142" stroke="white" stroke-width="1.5" stroke-linecap="round" stroke-linejoin="round"/>
<path d="M24.4 10.2C24.4 5.99826 21.0017 2.59998 16.8 2.59998L17.94 4.49998" stroke="white" stroke-width="1.5" stroke-linecap="round" stroke-linejoin="round"/>
</svg>
